<svg xmlns="http://www.w3.org/2000/svg" version="1.1" xmlns:xlink="http://www.w3.org/1999/xlink" width="200" height="200"><svg xmlns="http://www.w3.org/2000/svg" version="1.1" xmlns:xlink="http://www.w3.org/1999/xlink" viewBox="0 0 200 200"><rect width="200" height="200" fill="url('#gradient')"></rect><defs><linearGradient id="SvgjsLinearGradient1001" gradientTransform="rotate(45 0.5 0.5)"><stop offset="0%" stop-color="#dee90b"></stop><stop offset="100%" stop-color="#d9e241"></stop></linearGradient></defs><g><g fill="#c743a0" transform="matrix(5.080485115766263,0,0,5.080485115766263,8.2196294137635,127.5108619172623)" stroke="#0f2084" stroke-width="0.15"><path d="M12.24-14.22L12.24-11.57L7.97-11.57L7.97 0L4.54 0L4.54-11.57L0.35-11.57L0.35-14.22L12.24-14.22ZM19.35-10.64L19.29-7.59L18.20-7.67Q16.65-7.67 16.21-6.69L16.21-6.69L16.21 0L12.92 0L12.92-10.57L16.01-10.57L16.11-9.21Q16.94-10.76 18.43-10.76L18.43-10.76Q18.96-10.76 19.35-10.64L19.35-10.64ZM23.95-10.57L23.95 0L20.64 0L20.64-10.57L23.95-10.57ZM20.45-13.29L20.45-13.29Q20.45-13.99 20.96-14.44Q21.46-14.89 22.28-14.89Q23.09-14.89 23.59-14.44Q24.10-13.99 24.10-13.29Q24.10-12.59 23.59-12.14Q23.09-11.69 22.28-11.69Q21.46-11.69 20.96-12.14Q20.45-12.59 20.45-13.29ZM35.78-5.36L35.78-5.21Q35.78-2.74 34.67-1.27Q33.56 0.20 31.68 0.20L31.68 0.20Q30.22 0.20 29.29-0.87L29.29-0.87L29.29 4.06L26.00 4.06L26.00-10.57L29.07-10.57L29.17-9.59Q30.12-10.76 31.66-10.76L31.66-10.76Q33.61-10.76 34.70-9.32Q35.78-7.88 35.78-5.36L35.78-5.36ZM32.49-5.06L32.49-5.41Q32.49-8.22 30.85-8.22L30.85-8.22Q29.68-8.22 29.29-7.38L29.29-7.38L29.29-3.22Q29.72-2.34 30.87-2.34L30.87-2.34Q32.44-2.34 32.49-5.06L32.49-5.06Z"></path></g></g></svg><style>@media (prefers-color-scheme: light) { :root { filter: none; } }
@media (prefers-color-scheme: dark) { :root { filter: none; } }
</style></svg>